<svg xmlns="http://www.w3.org/2000/svg" xmlns:xlink="http://www.w3.org/1999/xlink" width="20cm" height="20cm" viewBox="301 86 387 399"><g><rect width="146.55" height="28" x="414" y="87" fill="#fff"/><rect width="146.55" height="28" x="414" y="87" fill="none" fill-opacity="0" stroke="#000" stroke-width="2"/><text x="487.275" y="106" fill="#000" font-family="sans-serif" font-size="16" font-style="normal" font-weight="700" text-anchor="middle">ActionManager</text><rect width="146.55" height="8" x="414" y="115" fill="#fff"/><rect width="146.55" height="8" x="414" y="115" fill="none" fill-opacity="0" stroke="#000" stroke-width="2"/><rect width="146.55" height="8" x="414" y="123" fill="#fff"/><rect width="146.55" height="8" x="414" y="123" fill="none" fill-opacity="0" stroke="#000" stroke-width="2"/></g><g><rect width="53.25" height="28" x="460" y="320" fill="#fff"/><rect width="53.25" height="28" x="460" y="320" fill="none" fill-opacity="0" stroke="#000" stroke-width="2"/><text x="486.625" y="339" fill="#000" font-family="sans-serif" font-size="16" font-style="italic" font-weight="700" text-anchor="middle">View</text><rect width="53.25" height="8" x="460" y="348" fill="#fff"/><rect width="53.25" height="8" x="460" y="348" fill="none" fill-opacity="0" stroke="#000" stroke-width="2"/><rect width="53.25" height="8" x="460" y="356" fill="#fff"/><rect width="53.25" height="8" x="460" y="356" fill="none" fill-opacity="0" stroke="#000" stroke-width="2"/></g><g><rect width="132.35" height="28" x="421" y="204" fill="#fff"/><rect width="132.35" height="28" x="421" y="204" fill="none" fill-opacity="0" stroke="#000" stroke-width="2"/><text x="487.175" y="223" fill="#000" font-family="sans-serif" font-size="16" font-style="normal" font-weight="700" text-anchor="middle">ViewManager</text><rect width="132.35" height="8" x="421" y="232" fill="#fff"/><rect width="132.35" height="8" x="421" y="232" fill="none" fill-opacity="0" stroke="#000" stroke-width="2"/><rect width="132.35" height="8" x="421" y="240" fill="#fff"/><rect width="132.35" height="8" x="421" y="240" fill="none" fill-opacity="0" stroke="#000" stroke-width="2"/></g><g><polyline fill="none" fill-opacity="0" stroke="#000" stroke-width="2" points="487.275 157.177 487.275 174.5 487.175 174.5 487.175 202.994"/><polygon fill="#000" points="487.275 132.006 492.075 146.006 487.275 160.006 482.475 146.006"/><polygon fill="none" fill-opacity="0" stroke="#000" stroke-width="2" points="487.275 132.006 492.075 146.006 487.275 160.006 482.475 146.006"/><text x="491.175" y="198.994" fill="#000" font-family="monospace" font-size="12.8" font-style="normal" font-weight="normal" text-anchor="start">1</text></g><g><polyline fill="none" fill-opacity="0" stroke="#000" stroke-width="2" points="487.175 274.177 487.175 291 486.625 291 486.625 318.994"/><polygon fill="#000" points="487.175 249.006 491.975 263.006 487.175 277.006 482.375 263.006"/><polygon fill="none" fill-opacity="0" stroke="#000" stroke-width="2" points="487.175 249.006 491.975 263.006 487.175 277.006 482.375 263.006"/><text x="490.625" y="314.994" fill="#000" font-family="monospace" font-size="12.8" font-style="normal" font-weight="normal" text-anchor="start">1..*</text></g><g><rect width="99.1" height="28" x="302" y="440" fill="#fff"/><rect width="99.1" height="28" x="302" y="440" fill="none" fill-opacity="0" stroke="#000" stroke-width="2"/><text x="351.55" y="459" fill="#000" font-family="sans-serif" font-size="16" font-style="normal" font-weight="700" text-anchor="middle">FormView</text><rect width="99.1" height="8" x="302" y="468" fill="#fff"/><rect width="99.1" height="8" x="302" y="468" fill="none" fill-opacity="0" stroke="#000" stroke-width="2"/><rect width="99.1" height="8" x="302" y="476" fill="#fff"/><rect width="99.1" height="8" x="302" y="476" fill="none" fill-opacity="0" stroke="#000" stroke-width="2"/></g><g><rect width="86.1" height="28" x="443.8" y="438.8" fill="#fff"/><rect width="86.1" height="28" x="443.8" y="438.8" fill="none" fill-opacity="0" stroke="#000" stroke-width="2"/><text x="486.85" y="457.8" fill="#000" font-family="sans-serif" font-size="16" font-style="normal" font-weight="700" text-anchor="middle">ListView</text><rect width="86.1" height="8" x="443.8" y="466.8" fill="#fff"/><rect width="86.1" height="8" x="443.8" y="466.8" fill="none" fill-opacity="0" stroke="#000" stroke-width="2"/><rect width="86.1" height="8" x="443.8" y="474.8" fill="#fff"/><rect width="86.1" height="8" x="443.8" y="474.8" fill="none" fill-opacity="0" stroke="#000" stroke-width="2"/></g><g><rect width="121.5" height="28" x="564.8" y="438.8" fill="#fff"/><rect width="121.5" height="28" x="564.8" y="438.8" fill="none" fill-opacity="0" stroke="#000" stroke-width="2"/><text x="625.55" y="457.8" fill="#000" font-family="sans-serif" font-size="16" font-style="normal" font-weight="700" text-anchor="middle">KanbanView</text><rect width="121.5" height="8" x="564.8" y="466.8" fill="#fff"/><rect width="121.5" height="8" x="564.8" y="466.8" fill="none" fill-opacity="0" stroke="#000" stroke-width="2"/><rect width="121.5" height="8" x="564.8" y="474.8" fill="#fff"/><rect width="121.5" height="8" x="564.8" y="474.8" fill="none" fill-opacity="0" stroke="#000" stroke-width="2"/></g><g><polyline fill="none" fill-opacity="0" stroke="#000" stroke-dasharray="8" stroke-width="2" points="486.625 382.236 486.625 410 351.55 410 351.55 440"/><polygon fill="#fff" points="494.625 382.236 486.625 366.236 478.625 382.236"/><polygon fill="none" fill-opacity="0" stroke="#000" stroke-width="2" points="494.625 382.236 486.625 366.236 478.625 382.236"/></g><g><polyline fill="none" fill-opacity="0" stroke="#000" stroke-dasharray="8" stroke-width="2" points="486.625 383.242 486.625 409.903 486.85 409.903 486.85 438.8"/><polygon fill="#fff" points="494.625 383.242 486.625 367.242 478.625 383.242"/><polygon fill="none" fill-opacity="0" stroke="#000" stroke-width="2" points="494.625 383.242 486.625 367.242 478.625 383.242"/></g><g><polyline fill="none" fill-opacity="0" stroke="#000" stroke-dasharray="8" stroke-width="2" points="486.625 383.242 486.625 409.903 625.55 409.903 625.55 438.8"/><polygon fill="#fff" points="494.625 383.242 486.625 367.242 478.625 383.242"/><polygon fill="none" fill-opacity="0" stroke="#000" stroke-width="2" points="494.625 383.242 486.625 367.242 478.625 383.242"/></g></svg>